<svg xmlns="http://www.w3.org/2000/svg" xmlns:xlink="http://www.w3.org/1999/xlink" width="500" zoomAndPan="magnify" viewBox="0 0 375 374.999991" height="500" preserveAspectRatio="xMidYMid meet" version="1.0"><path fill="#000000" d="M 219.273438 247.183594 L 217.933594 247.183594 C 207.578125 276.304688 188.769531 290.855469 161.523438 290.855469 C 141.085938 290.855469 124.601562 283.226562 112.097656 267.980469 C 99.578125 252.734375 93.316406 231.621094 93.316406 204.648438 C 93.316406 169.746094 101.984375 141.347656 119.308594 119.464844 C 136.628906 97.585938 157.515625 86.652344 181.945312 86.652344 C 204.027344 86.652344 217.859375 95.566406 223.484375 113.410156 L 224.378906 113.410156 L 226.585938 90.777344 L 276.578125 90.777344 C 269.914062 155.710938 266.566406 198.171875 266.566406 218.132812 C 266.566406 239.480469 272.191406 250.140625 283.457031 250.140625 C 295.3125 250.140625 305.089844 242.0625 312.777344 225.910156 C 320.480469 209.753906 324.347656 188.640625 324.347656 162.578125 C 324.347656 126.910156 313.296875 97.671875 291.246094 74.882812 C 269.164062 52.097656 238.371094 40.703125 198.820312 40.703125 C 156.460938 40.703125 121.242188 55.902344 93.1875 86.320312 C 65.121094 116.726562 51.085938 153.820312 51.085938 197.566406 C 51.085938 239.941406 63.492188 273.332031 88.296875 297.722656 C 113.105469 322.109375 147.347656 334.3125 191.046875 334.3125 C 224.378906 334.3125 254.882812 327.765625 282.578125 314.652344 L 282.578125 358.328125 C 257.25 369.433594 224.667969 375 184.832031 375 C 130.167969 375 85.703125 358.875 51.417969 326.640625 C 17.132812 294.402344 0 251.078125 0 196.644531 C 0 141.160156 18.289062 94.515625 54.878906 56.710938 C 91.441406 18.910156 138.546875 0 196.152344 0 C 249.476562 0 292.617188 14.667969 325.570312 44.019531 C 358.527344 73.371094 375 112.039062 375 160.066406 C 375 199.558594 364.933594 231.214844 344.785156 255.085938 C 324.648438 278.941406 299.683594 290.871094 269.929688 290.871094 C 255.273438 290.871094 243.332031 286.832031 234.160156 278.753906 C 224.957031 270.664062 219.996094 260.132812 219.273438 247.183594 Z M 189.722656 126.445312 C 176.394531 126.445312 165.546875 134.265625 157.183594 149.882812 C 148.804688 165.519531 144.621094 183.605469 144.621094 204.1875 C 144.621094 218.828125 147.476562 230.222656 153.171875 238.382812 C 158.871094 246.546875 166.226562 250.617188 175.269531 250.617188 C 189.203125 250.617188 200.148438 242.929688 208.152344 227.523438 C 216.144531 212.132812 220.140625 191.554688 220.140625 165.792969 C 220.140625 153.589844 217.355469 143.984375 211.804688 136.976562 C 206.25 129.964844 198.910156 126.445312 189.722656 126.445312 Z M 189.722656 126.445312 " fill-opacity="1" fill-rule="nonzero"/></svg>