<svg xmlns="http://www.w3.org/2000/svg" xmlns:xlink="http://www.w3.org/1999/xlink" width="500" zoomAndPan="magnify" viewBox="0 0 375 374.999991" height="500" preserveAspectRatio="xMidYMid meet" version="1.0"><defs><clipPath id="7ddc95ed69"><path d="M 7 8 L 369.089844 8 L 369.089844 371 L 7 371 Z M 7 8 " clip-rule="nonzero"/></clipPath></defs><g clip-path="url(#7ddc95ed69)"><path fill="#ffffff" d="M 266.226562 370.71875 C 265.632812 370.71875 265.039062 370.6875 264.445312 370.628906 C 263.855469 370.570312 263.269531 370.484375 262.6875 370.367188 C 262.105469 370.253906 261.527344 370.109375 260.960938 369.9375 C 260.390625 369.761719 259.832031 369.5625 259.28125 369.335938 C 258.734375 369.109375 258.199219 368.855469 257.675781 368.574219 C 257.148438 368.292969 256.640625 367.988281 256.148438 367.660156 C 255.652344 367.328125 255.175781 366.976562 254.71875 366.597656 C 254.257812 366.222656 253.816406 365.824219 253.398438 365.402344 C 252.976562 364.984375 252.578125 364.542969 252.203125 364.085938 C 251.824219 363.625 251.472656 363.148438 251.140625 362.65625 C 250.8125 362.160156 250.507812 361.652344 250.226562 361.128906 C 249.945312 360.605469 249.691406 360.066406 249.464844 359.519531 C 249.238281 358.96875 249.039062 358.410156 248.867188 357.84375 C 248.691406 357.273438 248.550781 356.699219 248.433594 356.117188 C 248.316406 355.53125 248.230469 354.945312 248.171875 354.355469 C 248.113281 353.761719 248.085938 353.171875 248.085938 352.578125 L 248.085938 305.410156 C 248.367188 302.699219 248.363281 299.984375 248.078125 297.273438 C 247.789062 294.5625 247.222656 291.910156 246.378906 289.316406 C 245.535156 286.722656 244.433594 284.242188 243.070312 281.882812 C 241.707031 279.519531 240.113281 277.324219 238.289062 275.296875 C 237.160156 274.074219 236.21875 272.71875 235.460938 271.234375 C 234.703125 269.75 234.164062 268.191406 233.835938 266.554688 C 233.511719 264.921875 233.410156 263.277344 233.539062 261.613281 C 233.664062 259.953125 234.015625 258.339844 234.585938 256.777344 C 235.15625 255.210938 235.929688 253.753906 236.902344 252.402344 C 237.875 251.050781 239.015625 249.855469 240.316406 248.816406 C 241.621094 247.777344 243.039062 246.933594 244.574219 246.285156 C 246.109375 245.640625 247.703125 245.210938 249.355469 245.003906 C 293.617188 239.742188 334.433594 225.59375 334.433594 148.855469 C 334.4375 145.292969 334.179688 141.75 333.660156 138.226562 C 333.144531 134.699219 332.367188 131.230469 331.339844 127.820312 C 330.308594 124.410156 329.035156 121.09375 327.519531 117.871094 C 326 114.644531 324.253906 111.550781 322.28125 108.585938 C 320.464844 105.867188 318.933594 102.996094 317.683594 99.976562 C 316.433594 96.957031 315.492188 93.84375 314.851562 90.636719 C 314.214844 87.433594 313.894531 84.195312 313.894531 80.925781 C 313.890625 77.660156 314.207031 74.421875 314.84375 71.214844 C 316.492188 62.6875 316.492188 54.164062 314.84375 45.636719 C 301.175781 50.257812 288.539062 56.847656 276.929688 65.410156 C 275.835938 66.183594 274.675781 66.832031 273.441406 67.347656 C 272.207031 67.867188 270.929688 68.242188 269.613281 68.476562 C 268.296875 68.710938 266.96875 68.800781 265.632812 68.742188 C 264.296875 68.683594 262.980469 68.480469 261.691406 68.132812 C 253.542969 65.828125 245.28125 64.097656 236.894531 62.9375 C 228.511719 61.773438 220.085938 61.191406 211.621094 61.191406 C 203.15625 61.191406 194.734375 61.773438 186.347656 62.9375 C 177.964844 64.097656 169.699219 65.828125 161.554688 68.132812 C 160.261719 68.480469 158.949219 68.683594 157.609375 68.742188 C 156.273438 68.800781 154.949219 68.710938 153.628906 68.476562 C 152.3125 68.242188 151.039062 67.867188 149.804688 67.347656 C 148.570312 66.832031 147.40625 66.183594 146.316406 65.410156 C 134.628906 56.746094 121.871094 50.152344 108.039062 45.636719 C 106.296875 54.164062 106.296875 62.6875 108.039062 71.214844 C 108.628906 74.464844 108.902344 77.738281 108.863281 81.039062 C 108.820312 84.339844 108.46875 87.605469 107.800781 90.839844 C 107.128906 94.070312 106.160156 97.210938 104.890625 100.257812 C 103.617188 103.300781 102.066406 106.199219 100.238281 108.949219 C 98.273438 111.933594 96.535156 115.050781 95.019531 118.289062 C 93.507812 121.527344 92.234375 124.863281 91.207031 128.285156 C 90.179688 131.710938 89.402344 135.191406 88.878906 138.730469 C 88.355469 142.269531 88.089844 145.824219 88.085938 149.402344 C 88.085938 219.96875 122.1875 238.835938 173.34375 245.363281 C 175.019531 245.574219 176.632812 246.003906 178.183594 246.664062 C 179.738281 247.320312 181.171875 248.179688 182.484375 249.234375 C 183.800781 250.292969 184.945312 251.511719 185.917969 252.886719 C 186.890625 254.261719 187.660156 255.746094 188.21875 257.339844 C 188.746094 258.882812 189.0625 260.46875 189.160156 262.09375 C 189.261719 263.722656 189.144531 265.335938 188.808594 266.929688 C 188.472656 268.527344 187.933594 270.050781 187.1875 271.5 C 186.441406 272.953125 185.515625 274.277344 184.410156 275.480469 C 182.648438 277.363281 181.09375 279.410156 179.753906 281.617188 C 178.414062 283.824219 177.316406 286.148438 176.457031 288.582031 C 175.597656 291.019531 175 293.515625 174.65625 296.074219 C 174.316406 298.636719 174.242188 301.203125 174.433594 303.777344 L 174.433594 352.578125 C 174.433594 353.171875 174.40625 353.761719 174.347656 354.355469 C 174.289062 354.945312 174.199219 355.53125 174.085938 356.117188 C 173.96875 356.699219 173.824219 357.273438 173.652344 357.84375 C 173.480469 358.410156 173.28125 358.96875 173.054688 359.519531 C 172.824219 360.066406 172.570312 360.605469 172.292969 361.128906 C 172.011719 361.652344 171.707031 362.160156 171.375 362.65625 C 171.046875 363.148438 170.691406 363.625 170.316406 364.085938 C 169.9375 364.542969 169.539062 364.984375 169.121094 365.402344 C 168.699219 365.824219 168.261719 366.222656 167.800781 366.597656 C 167.34375 366.976562 166.867188 367.328125 166.371094 367.660156 C 165.878906 367.988281 165.367188 368.292969 164.84375 368.574219 C 164.320312 368.855469 163.785156 369.109375 163.234375 369.335938 C 162.6875 369.5625 162.128906 369.761719 161.558594 369.9375 C 160.992188 370.109375 160.414062 370.253906 159.832031 370.367188 C 159.25 370.484375 158.664062 370.570312 158.070312 370.628906 C 157.480469 370.6875 156.886719 370.71875 156.292969 370.71875 C 155.699219 370.71875 155.105469 370.6875 154.515625 370.628906 C 153.921875 370.570312 153.335938 370.484375 152.753906 370.367188 C 152.171875 370.253906 151.59375 370.109375 151.027344 369.9375 C 150.457031 369.761719 149.898438 369.5625 149.351562 369.335938 C 148.800781 369.109375 148.265625 368.855469 147.742188 368.574219 C 147.21875 368.292969 146.707031 367.988281 146.214844 367.660156 C 145.722656 367.328125 145.242188 366.976562 144.785156 366.597656 C 144.324219 366.222656 143.886719 365.824219 143.464844 365.402344 C 143.046875 364.984375 142.648438 364.542969 142.269531 364.085938 C 141.894531 363.625 141.539062 363.148438 141.210938 362.65625 C 140.878906 362.160156 140.574219 361.652344 140.292969 361.128906 C 140.015625 360.605469 139.761719 360.066406 139.535156 359.519531 C 139.304688 358.96875 139.105469 358.410156 138.933594 357.84375 C 138.761719 357.273438 138.617188 356.699219 138.5 356.117188 C 138.386719 355.53125 138.296875 354.945312 138.238281 354.355469 C 138.179688 353.761719 138.152344 353.171875 138.152344 352.578125 L 138.152344 342.234375 C 133.714844 342.746094 129.257812 342.984375 124.789062 342.945312 C 120.320312 342.90625 115.871094 342.59375 111.441406 342.007812 C 107.011719 341.421875 102.632812 340.566406 98.308594 339.441406 C 93.984375 338.316406 89.746094 336.929688 85.589844 335.28125 C 81.4375 333.636719 77.398438 331.738281 73.480469 329.59375 C 69.558594 327.449219 65.785156 325.074219 62.15625 322.464844 C 58.53125 319.855469 55.074219 317.03125 51.796875 313.996094 C 48.515625 310.960938 45.433594 307.738281 42.550781 304.320312 C 36.546875 297.667969 29.535156 292.347656 21.507812 288.359375 C 20.933594 288.210938 20.363281 288.035156 19.804688 287.828125 C 19.246094 287.625 18.699219 287.394531 18.160156 287.136719 C 17.625 286.878906 17.101562 286.59375 16.59375 286.285156 C 16.085938 285.976562 15.59375 285.640625 15.117188 285.285156 C 14.640625 284.925781 14.183594 284.546875 13.746094 284.144531 C 13.308594 283.742188 12.890625 283.316406 12.492188 282.875 C 12.097656 282.429688 11.722656 281.96875 11.371094 281.488281 C 11.019531 281.007812 10.691406 280.511719 10.390625 280 C 10.085938 279.484375 9.808594 278.960938 9.558594 278.421875 C 9.308594 277.878906 9.085938 277.328125 8.886719 276.769531 C 8.691406 276.207031 8.523438 275.636719 8.382812 275.058594 C 8.242188 274.480469 8.128906 273.894531 8.046875 273.304688 C 7.960938 272.714844 7.90625 272.125 7.882812 271.53125 C 7.855469 270.933594 7.859375 270.339844 7.894531 269.746094 C 7.925781 269.152344 7.988281 268.558594 8.082031 267.972656 C 8.171875 267.382812 8.292969 266.800781 8.441406 266.226562 C 8.589844 265.648438 8.765625 265.082031 8.96875 264.523438 C 9.175781 263.964844 9.40625 263.414062 9.664062 262.878906 C 9.921875 262.34375 10.207031 261.820312 10.515625 261.3125 C 10.824219 260.804688 11.160156 260.3125 11.515625 259.835938 C 11.875 259.359375 12.253906 258.902344 12.65625 258.464844 C 13.0625 258.027344 13.484375 257.609375 13.929688 257.210938 C 14.371094 256.816406 14.832031 256.441406 15.3125 256.089844 C 15.796875 255.738281 16.292969 255.410156 16.804688 255.109375 C 17.316406 254.808594 17.84375 254.53125 18.382812 254.28125 C 18.921875 254.027344 19.472656 253.804688 20.035156 253.609375 C 20.597656 253.414062 21.167969 253.242188 21.746094 253.101562 C 22.324219 252.960938 22.910156 252.851562 23.5 252.765625 C 24.085938 252.683594 24.679688 252.628906 25.273438 252.605469 C 25.867188 252.582031 26.464844 252.585938 27.058594 252.617188 C 27.652344 252.652344 28.242188 252.714844 28.832031 252.804688 C 29.421875 252.898438 30.003906 253.015625 30.578125 253.164062 C 37.554688 255.707031 44.113281 259.066406 50.253906 263.242188 C 56.394531 267.417969 61.929688 272.28125 66.859375 277.835938 C 85 295.976562 103.140625 311.941406 137.609375 305.410156 C 137.304688 300.539062 137.503906 295.691406 138.207031 290.863281 C 138.910156 286.035156 140.101562 281.328125 141.78125 276.75 C 104.410156 267.316406 51.078125 240.46875 51.078125 149.765625 C 51.066406 144.421875 51.445312 139.109375 52.214844 133.820312 C 52.984375 128.535156 54.140625 123.332031 55.675781 118.21875 C 57.210938 113.101562 59.117188 108.125 61.382812 103.289062 C 63.652344 98.453125 66.265625 93.808594 69.21875 89.355469 C 70.320312 87.703125 71.078125 85.90625 71.484375 83.960938 C 71.890625 82.015625 71.921875 80.066406 71.578125 78.109375 C 70.664062 73.238281 70.105469 68.328125 69.902344 63.378906 C 69.699219 58.429688 69.847656 53.488281 70.355469 48.558594 C 70.863281 43.632812 71.71875 38.765625 72.925781 33.957031 C 74.132812 29.152344 75.679688 24.460938 77.5625 19.878906 C 78.078125 18.648438 78.71875 17.492188 79.488281 16.402344 C 80.257812 15.316406 81.136719 14.328125 82.125 13.433594 C 83.113281 12.539062 84.183594 11.765625 85.34375 11.105469 C 86.5 10.449219 87.71875 9.925781 88.992188 9.535156 C 95.160156 7.722656 117.289062 4.09375 159.195312 31.304688 C 167.648438 29.273438 176.1875 27.742188 184.820312 26.71875 C 193.453125 25.695312 202.113281 25.183594 210.804688 25.183594 C 219.496094 25.183594 228.160156 25.695312 236.792969 26.71875 C 245.421875 27.742188 253.964844 29.273438 262.414062 31.304688 C 304.320312 4.09375 326.453125 7.542969 332.4375 9.535156 C 333.710938 9.925781 334.929688 10.449219 336.085938 11.105469 C 337.246094 11.765625 338.316406 12.539062 339.304688 13.433594 C 340.292969 14.328125 341.171875 15.316406 341.941406 16.402344 C 342.710938 17.492188 343.351562 18.648438 343.867188 19.878906 C 345.753906 24.476562 347.300781 29.183594 348.511719 34.003906 C 349.722656 38.824219 350.578125 43.707031 351.085938 48.652344 C 351.59375 53.59375 351.742188 58.550781 351.535156 63.515625 C 351.328125 68.480469 350.769531 73.40625 349.855469 78.289062 C 349.480469 80.078125 349.464844 81.867188 349.808594 83.660156 C 350.15625 85.453125 350.835938 87.109375 351.847656 88.628906 C 354.808594 93.09375 357.429688 97.753906 359.703125 102.601562 C 361.976562 107.453125 363.878906 112.445312 365.417969 117.578125 C 366.953125 122.710938 368.105469 127.929688 368.871094 133.230469 C 369.636719 138.53125 370.011719 143.863281 369.988281 149.21875 C 369.988281 241.191406 317.019531 267.859375 279.285156 276.203125 C 280.949219 281.070312 282.117188 286.054688 282.785156 291.152344 C 283.457031 296.253906 283.621094 301.367188 283.277344 306.5 L 283.277344 352.578125 C 283.28125 353.722656 283.171875 354.859375 282.960938 355.984375 C 282.746094 357.113281 282.429688 358.210938 282.007812 359.277344 C 281.585938 360.34375 281.070312 361.359375 280.453125 362.328125 C 279.839844 363.296875 279.140625 364.199219 278.355469 365.035156 C 277.570312 365.871094 276.710938 366.625 275.785156 367.296875 C 274.855469 367.96875 273.871094 368.550781 272.832031 369.035156 C 271.796875 369.523438 270.71875 369.90625 269.609375 370.191406 C 268.496094 370.472656 267.371094 370.648438 266.226562 370.71875 Z M 266.226562 370.71875 " fill-opacity="1" fill-rule="nonzero"/></g></svg>