<svg xmlns="http://www.w3.org/2000/svg" xmlns:xlink="http://www.w3.org/1999/xlink" width="500" zoomAndPan="magnify" viewBox="0 0 375 374.999991" height="500" preserveAspectRatio="xMidYMid meet" version="1.0"><defs><clipPath id="6e73841027"><path d="M 9.375 7.71875 L 364.875 7.71875 L 364.875 363.21875 L 9.375 363.21875 Z M 9.375 7.71875 " clip-rule="nonzero"/></clipPath></defs><g clip-path="url(#6e73841027)"><path fill="#ffffff" d="M 365.0625 309.324219 C 365.0625 339.175781 340.863281 363.375 311.011719 363.375 L 63.433594 363.375 C 33.585938 363.375 9.390625 339.175781 9.390625 309.324219 L 9.390625 61.746094 C 9.390625 31.894531 33.585938 7.699219 63.433594 7.699219 L 311.015625 7.699219 C 340.867188 7.699219 365.0625 31.894531 365.0625 61.746094 Z M 365.0625 309.324219 " fill-opacity="1" fill-rule="nonzero"/></g><path fill="#000000" d="M 150.03125 134.59375 C 150.03125 135.464844 149.988281 136.332031 149.902344 137.199219 C 149.816406 138.0625 149.6875 138.921875 149.519531 139.777344 C 149.347656 140.628906 149.136719 141.472656 148.886719 142.304688 C 148.632812 143.140625 148.339844 143.957031 148.007812 144.761719 C 147.675781 145.566406 147.300781 146.351562 146.890625 147.117188 C 146.480469 147.886719 146.035156 148.632812 145.550781 149.355469 C 145.066406 150.078125 144.550781 150.777344 144 151.449219 C 143.445312 152.121094 142.863281 152.765625 142.246094 153.382812 C 141.632812 153.996094 140.988281 154.582031 140.316406 155.132812 C 139.644531 155.683594 138.945312 156.203125 138.222656 156.6875 C 137.496094 157.167969 136.753906 157.617188 135.984375 158.027344 C 135.21875 158.4375 134.429688 158.808594 133.628906 159.140625 C 132.824219 159.472656 132.003906 159.765625 131.171875 160.019531 C 130.339844 160.273438 129.496094 160.484375 128.644531 160.652344 C 127.789062 160.824219 126.929688 160.949219 126.0625 161.035156 C 125.199219 161.121094 124.328125 161.164062 123.460938 161.164062 C 122.589844 161.164062 121.722656 161.121094 120.855469 161.035156 C 119.988281 160.949219 119.128906 160.824219 118.277344 160.652344 C 117.421875 160.484375 116.578125 160.273438 115.746094 160.019531 C 114.914062 159.765625 114.09375 159.472656 113.292969 159.140625 C 112.488281 158.808594 111.703125 158.4375 110.933594 158.027344 C 110.167969 157.617188 109.421875 157.167969 108.699219 156.6875 C 107.972656 156.203125 107.277344 155.683594 106.605469 155.132812 C 105.929688 154.582031 105.285156 153.996094 104.671875 153.382812 C 104.054688 152.765625 103.472656 152.121094 102.921875 151.449219 C 102.367188 150.777344 101.851562 150.078125 101.367188 149.355469 C 100.882812 148.632812 100.4375 147.886719 100.027344 147.117188 C 99.617188 146.351562 99.246094 145.566406 98.910156 144.761719 C 98.578125 143.957031 98.285156 143.140625 98.035156 142.304688 C 97.78125 141.472656 97.570312 140.628906 97.398438 139.777344 C 97.230469 138.921875 97.101562 138.0625 97.015625 137.199219 C 96.933594 136.332031 96.890625 135.464844 96.890625 134.59375 C 96.890625 133.722656 96.933594 132.855469 97.015625 131.988281 C 97.101562 131.125 97.230469 130.261719 97.398438 129.410156 C 97.570312 128.558594 97.78125 127.714844 98.035156 126.882812 C 98.285156 126.046875 98.578125 125.230469 98.910156 124.425781 C 99.246094 123.621094 99.617188 122.835938 100.027344 122.070312 C 100.4375 121.300781 100.882812 120.554688 101.367188 119.832031 C 101.851562 119.109375 102.367188 118.410156 102.921875 117.738281 C 103.472656 117.066406 104.054688 116.421875 104.671875 115.804688 C 105.285156 115.191406 105.929688 114.605469 106.605469 114.054688 C 107.277344 113.503906 107.972656 112.984375 108.699219 112.5 C 109.421875 112.019531 110.167969 111.570312 110.933594 111.160156 C 111.703125 110.75 112.488281 110.378906 113.292969 110.046875 C 114.09375 109.714844 114.914062 109.421875 115.746094 109.167969 C 116.578125 108.914062 117.421875 108.703125 118.277344 108.535156 C 119.128906 108.363281 119.988281 108.238281 120.855469 108.152344 C 121.722656 108.066406 122.589844 108.023438 123.460938 108.023438 C 124.328125 108.023438 125.199219 108.066406 126.0625 108.152344 C 126.929688 108.238281 127.789062 108.363281 128.644531 108.535156 C 129.496094 108.703125 130.339844 108.914062 131.171875 109.167969 C 132.003906 109.421875 132.824219 109.714844 133.628906 110.046875 C 134.429688 110.378906 135.21875 110.75 135.984375 111.160156 C 136.753906 111.570312 137.496094 112.019531 138.222656 112.5 C 138.945312 112.984375 139.644531 113.503906 140.316406 114.054688 C 140.988281 114.605469 141.632812 115.191406 142.246094 115.804688 C 142.863281 116.421875 143.445312 117.066406 144 117.738281 C 144.550781 118.410156 145.066406 119.109375 145.550781 119.832031 C 146.035156 120.554688 146.480469 121.300781 146.890625 122.070312 C 147.300781 122.835938 147.675781 123.621094 148.007812 124.425781 C 148.339844 125.230469 148.632812 126.046875 148.886719 126.882812 C 149.136719 127.714844 149.347656 128.558594 149.519531 129.410156 C 149.6875 130.261719 149.816406 131.125 149.902344 131.988281 C 149.988281 132.855469 150.03125 133.722656 150.03125 134.59375 Z M 150.03125 134.59375 " fill-opacity="1" fill-rule="nonzero"/><path fill="#000000" d="M 100.554688 180.753906 L 146.199219 180.753906 L 146.199219 327.597656 L 100.554688 327.597656 Z M 100.554688 180.753906 " fill-opacity="1" fill-rule="nonzero"/><path fill="#000000" d="M 174.910156 180.753906 L 218.355469 180.753906 L 218.355469 327.597656 L 174.910156 327.597656 Z M 174.910156 180.753906 " fill-opacity="1" fill-rule="nonzero"/><path fill="#000000" d="M 176.789062 258.9375 L 220.230469 258.9375 L 220.230469 327.597656 L 176.789062 327.597656 Z M 176.789062 258.9375 " fill-opacity="1" fill-rule="nonzero"/><path fill="#000000" d="M 220.230469 258.9375 C 220.230469 258.9375 219.554688 239.890625 224.578125 229.988281 C 224.578125 229.988281 229.601562 217.792969 245.390625 217.71875 C 245.390625 217.71875 263.90625 214.484375 269.214844 232.859375 C 269.214844 232.859375 271.226562 243.050781 271.226562 247.355469 C 271.226562 251.664062 271.371094 327.597656 271.371094 327.597656 L 316.871094 327.597656 L 316.871094 243.480469 C 316.871094 243.480469 320.175781 195.96875 291.65625 182.953125 C 291.65625 182.953125 244.765625 161.902344 219.3125 200.5625 C 219.3125 200.5625 213.761719 204.386719 212.996094 193.671875 C 212.230469 182.953125 205.722656 210.128906 205.53125 210.707031 C 205.339844 211.28125 212.996094 264.867188 212.996094 264.867188 Z M 220.230469 258.9375 " fill-opacity="1" fill-rule="nonzero"/></svg>