<svg xmlns="http://www.w3.org/2000/svg" xmlns:xlink="http://www.w3.org/1999/xlink" width="500" zoomAndPan="magnify" viewBox="0 0 375 374.999991" height="500" preserveAspectRatio="xMidYMid meet" version="1.0"><defs><clipPath id="d85fa7a4d6"><path d="M 58.828125 0 L 316.078125 0 L 316.078125 369 L 58.828125 369 Z M 58.828125 0 " clip-rule="nonzero"/></clipPath></defs><g clip-path="url(#d85fa7a4d6)"><path fill="#040404" d="M 187.457031 0.121094 C 258.492188 0.121094 316.082031 57.734375 316.082031 128.796875 C 316.082031 153.523438 309.105469 176.617188 297.019531 196.222656 C 282.523438 220.246094 268.027344 244.269531 253.53125 268.292969 C 235.878906 297 221.59375 320.230469 203.9375 348.941406 C 188.375 374.253906 187.324219 374.875 171.675781 349.433594 C 154.113281 320.867188 139.34375 296.855469 121.78125 268.292969 C 107.316406 244.539062 92.859375 220.785156 78.394531 197.035156 C 66.003906 177.253906 58.828125 153.867188 58.828125 128.796875 C 58.828125 57.734375 116.417969 0.121094 187.457031 0.121094 Z M 187.457031 64.636719 C 219.300781 64.636719 245.121094 90.460938 245.121094 122.320312 C 245.121094 154.179688 219.304688 180.003906 187.457031 180.003906 C 155.609375 180.003906 129.789062 154.179688 129.789062 122.320312 C 129.792969 90.460938 155.609375 64.636719 187.457031 64.636719 Z M 187.457031 64.636719 " fill-opacity="1" fill-rule="evenodd"/></g></svg>