<svg xmlns="http://www.w3.org/2000/svg" xmlns:xlink="http://www.w3.org/1999/xlink" width="500" zoomAndPan="magnify" viewBox="0 0 375 374.999991" height="500" preserveAspectRatio="xMidYMid meet" version="1.0"><path fill="#000000" d="M 130.917969 2.152344 C 130.917969 2.152344 51.269531 3.199219 52.304688 75.253906 C 53.335938 147.308594 67.824219 211.023438 91.613281 246.53125 C 115.40625 282.039062 176.425781 374.984375 245.734375 365.589844 C 245.734375 365.589844 279.871094 358.277344 305.722656 341.5625 L 221.941406 275.769531 C 221.941406 275.769531 197.117188 291.4375 181.601562 270.546875 C 166.085938 249.65625 117.472656 152.539062 117.472656 152.539062 C 117.472656 152.539062 104.023438 121.207031 134.023438 107.632812 Z M 130.917969 2.152344 " fill-opacity="1" fill-rule="nonzero"/><path fill="#000000" d="M 140.230469 2.152344 C 140.230469 2.152344 146.4375 0.0742188 157.8125 6.332031 C 169.183594 12.59375 169.1875 17.8125 169.1875 17.8125 L 170.222656 89.878906 C 170.222656 89.878906 167.121094 94.058594 162.984375 98.230469 C 158.847656 102.40625 145.402344 108.675781 143.328125 104.496094 C 141.265625 100.324219 140.230469 2.152344 140.230469 2.152344 Z M 140.230469 2.152344 " fill-opacity="1" fill-rule="nonzero"/><path fill="#000000" d="M 228.90625 268.070312 L 251.941406 255.925781 C 251.941406 255.925781 257.109375 254.886719 265.382812 260.101562 C 273.660156 265.335938 317.105469 299.800781 317.105469 299.800781 C 317.105469 299.800781 324.34375 306.0625 322.273438 313.375 C 320.207031 320.683594 315.035156 336.351562 315.035156 336.351562 Z M 228.90625 268.070312 " fill-opacity="1" fill-rule="nonzero"/></svg>